<svg id="Layer_1" data-name="Layer 1" xmlns="http://www.w3.org/2000/svg" viewBox="0 0 129.32 30.82"><defs><style>.cls-1{fill:#151a2c;}.cls-2{fill:#01ecb3;}</style></defs><title>foundr</title><path class="cls-1" d="M11.11,0Q7.36,0,5.51,1.86A6.51,6.51,0,0,0,3.66,6.65v1.7H0v4H3.66V30.27H9.78V12.38H14v-4H9.78V7a2.78,2.78,0,0,1,.54-1.93,2.37,2.37,0,0,1,1.79-.57,19.16,19.16,0,0,1,2.24.13V.17L12.74.06C12.2,0,11.65,0,11.11,0ZM34.79,10.91a10.38,10.38,0,0,0-3.64-2.33,13,13,0,0,0-4.76-.83,12.86,12.86,0,0,0-4.74.83A10.42,10.42,0,0,0,18,10.91a10.27,10.27,0,0,0-2.32,3.65,13.27,13.27,0,0,0-.82,4.77,13.09,13.09,0,0,0,.82,4.75A10,10,0,0,0,21.66,30a13.17,13.17,0,0,0,4.74.81A13.35,13.35,0,0,0,31.16,30a10.16,10.16,0,0,0,3.64-2.31,10.28,10.28,0,0,0,2.33-3.63,13.08,13.08,0,0,0,.82-4.75,13.26,13.26,0,0,0-.82-4.77A10.27,10.27,0,0,0,34.79,10.91Zm-3.23,11a6.8,6.8,0,0,1-.89,2.25A4.56,4.56,0,0,1,29,25.73a5.23,5.23,0,0,1-2.61.6,5.11,5.11,0,0,1-2.59-.6,4.64,4.64,0,0,1-1.66-1.59,6.79,6.79,0,0,1-.88-2.25A12.66,12.66,0,0,1,21,19.33a12.92,12.92,0,0,1,.26-2.58,6.55,6.55,0,0,1,.88-2.25,4.92,4.92,0,0,1,1.66-1.59,5,5,0,0,1,2.59-.62,5.1,5.1,0,0,1,2.61.62,4.83,4.83,0,0,1,1.68,1.59,6.56,6.56,0,0,1,.89,2.25,12.88,12.88,0,0,1,.26,2.58A12.62,12.62,0,0,1,31.57,21.89Zm24-2.06q0,3.35-1.12,4.81a4.27,4.27,0,0,1-3.62,1.46,3.35,3.35,0,0,1-3.06-1.33,7.57,7.57,0,0,1-.86-4.05V8.35H40.82V21.83a17.36,17.36,0,0,0,.36,3.71,7,7,0,0,0,1.27,2.84,5.75,5.75,0,0,0,2.48,1.8,10.79,10.79,0,0,0,4,.64A9,9,0,0,0,52.75,30a6.88,6.88,0,0,0,3-2.75h.13v3.05h5.81V8.35H55.59Zm28.94-9.6a6,6,0,0,0-2.48-1.82,10.51,10.51,0,0,0-4-.66,8.81,8.81,0,0,0-3.79.87,7,7,0,0,0-3,2.78H71.1V8.35H65.28V30.27H71.4V18.78c0-2.23.37-3.84,1.12-4.81a4.27,4.27,0,0,1,3.62-1.47,3.36,3.36,0,0,1,3.06,1.34,7.56,7.56,0,0,1,.86,4V30.27h6.11V16.79a17.36,17.36,0,0,0-.36-3.71A7,7,0,0,0,84.54,10.24ZM105.33,0V11h-.09a6.5,6.5,0,0,0-2.82-2.44,8.84,8.84,0,0,0-3.76-.83,9.28,9.28,0,0,0-4.31,1,9.11,9.11,0,0,0-3.08,2.52,11,11,0,0,0-1.85,3.62,14.61,14.61,0,0,0-.63,4.26,15.52,15.52,0,0,0,.63,4.41,11.73,11.73,0,0,0,1.85,3.75,8.78,8.78,0,0,0,3.12,2.59,9.71,9.71,0,0,0,4.4,1,9.56,9.56,0,0,0,3.94-.78,6.28,6.28,0,0,0,2.82-2.56h.09v2.8h5.81V0Zm0,21.88a7.2,7.2,0,0,1-.86,2.27,4.53,4.53,0,0,1-1.62,1.59,4.89,4.89,0,0,1-2.52.6,4.62,4.62,0,0,1-2.43-.62,5.21,5.21,0,0,1-1.68-1.61,6.92,6.92,0,0,1-1-2.27,11,11,0,0,1-.3-2.55,11.9,11.9,0,0,1,.28-2.61,6.9,6.9,0,0,1,.9-2.22,4.7,4.7,0,0,1,1.66-1.57,5,5,0,0,1,2.54-.59,4.79,4.79,0,0,1,2.5.59,4.93,4.93,0,0,1,1.61,1.55,6.25,6.25,0,0,1,.88,2.2,12.85,12.85,0,0,1,.26,2.61A13.21,13.21,0,0,1,105.29,21.88Z"/><path class="cls-2" d="M120.79,8.35v4.07h.09a7.5,7.5,0,0,1,2.84-3.37,8.2,8.2,0,0,1,2-1A7.4,7.4,0,0,1,128,7.76a4.87,4.87,0,0,1,1.34.21v5.6c-.29-.06-.63-.1-1-.15a11.12,11.12,0,0,0-1.16-.07,6.62,6.62,0,0,0-2.84.55,4.9,4.9,0,0,0-1.87,1.51,5.92,5.92,0,0,0-1,2.22,11.9,11.9,0,0,0-.3,2.76v9.88H115V8.35Z"/></svg>