<svg id="Layer_1" data-name="Layer 1" xmlns="http://www.w3.org/2000/svg" viewBox="0 0 40.76 39.76"><defs><style>.cls-1{fill:#151a2c;}</style></defs><title>foundr-</title><path class="cls-1" d="M18,23.06h4.12V12.53H18ZM20.88,0A19.88,19.88,0,1,0,40.76,19.88,19.88,19.88,0,0,0,20.88,0ZM33.17,32.17a17.32,17.32,0,1,1,3.73-5.53A17.33,17.33,0,0,1,33.17,32.17Z"/><path class="cls-1" d="M21.13,12.53H17V23.06H31v-4.2H21.13ZM19.88,0A19.88,19.88,0,1,0,39.76,19.88,19.88,19.88,0,0,0,19.88,0ZM32.17,32.17a17.32,17.32,0,1,1,3.73-5.53A17.33,17.33,0,0,1,32.17,32.17Z"/></svg>